<mxfile host="app.diagrams.net" modified="2023-06-06T07:25:19.011Z" agent="Mozilla/5.0 (Windows NT 10.0; Win64; x64) AppleWebKit/537.36 (KHTML, like Gecko) Chrome/113.0.0.0 Safari/537.36" version="21.3.7" etag="HxIx2Av61cebBr23086v" type="github">
  <diagram name="第 1 页" id="0UHj5b1XjPD97v3b4m5h">
    <mxGraphModel>
      <root>
        <mxCell id="0" />
        <mxCell id="1" parent="0" />
      </root>
    </mxGraphModel>
  </diagram>
</mxfile>
